<mxfile host="app.diagrams.net" modified="2024-04-23T14:49:31.356Z" agent="Mozilla/5.0 (X11; Linux x86_64) AppleWebKit/537.36 (KHTML, like Gecko) Chrome/124.0.0.0 Safari/537.36" etag="HzzH3fstNW0tJWJhyx0O" version="24.2.8" type="github">
  <diagram id="prtHgNgQTEPvFCAcTncT" name="Page-1">
    <mxGraphModel dx="1376" dy="879" grid="1" gridSize="10" guides="1" tooltips="1" connect="1" arrows="1" fold="1" page="1" pageScale="1" pageWidth="827" pageHeight="1169" math="0" shadow="0">
      <root>
        <mxCell id="0" />
        <mxCell id="1" parent="0" />
        <mxCell id="-wIudkOCiHozRIKyImha-9" value="" style="edgeStyle=orthogonalEdgeStyle;rounded=0;orthogonalLoop=1;jettySize=auto;html=1;flowAnimation=0;sketch=1;curveFitting=1;jiggle=2;" edge="1" parent="1" source="-wIudkOCiHozRIKyImha-5" target="-wIudkOCiHozRIKyImha-6">
          <mxGeometry relative="1" as="geometry" />
        </mxCell>
        <mxCell id="-wIudkOCiHozRIKyImha-5" value="&lt;span style=&quot;font-size: 20px;&quot;&gt;Source Code&amp;nbsp;&lt;/span&gt;" style="strokeWidth=2;html=1;shape=mxgraph.flowchart.document2;whiteSpace=wrap;size=0.25;sketch=1;curveFitting=1;jiggle=2;" vertex="1" parent="1">
          <mxGeometry x="260" y="110" width="160" height="80" as="geometry" />
        </mxCell>
        <mxCell id="-wIudkOCiHozRIKyImha-10" value="" style="edgeStyle=orthogonalEdgeStyle;rounded=0;orthogonalLoop=1;jettySize=auto;html=1;sketch=1;curveFitting=1;jiggle=2;entryX=0.5;entryY=0;entryDx=0;entryDy=0;entryPerimeter=0;" edge="1" parent="1" source="-wIudkOCiHozRIKyImha-6" target="-wIudkOCiHozRIKyImha-7">
          <mxGeometry relative="1" as="geometry" />
        </mxCell>
        <mxCell id="-wIudkOCiHozRIKyImha-6" value="&lt;font style=&quot;font-size: 20px;&quot;&gt;Compiler&lt;/font&gt;" style="shape=cube;whiteSpace=wrap;html=1;boundedLbl=1;backgroundOutline=1;darkOpacity=0.05;darkOpacity2=0.1;sketch=1;curveFitting=1;jiggle=2;fillColor=#f5f5f5;fontColor=#333333;strokeColor=#666666;" vertex="1" parent="1">
          <mxGeometry x="245" y="250" width="190" height="130" as="geometry" />
        </mxCell>
        <mxCell id="-wIudkOCiHozRIKyImha-7" value="&lt;span style=&quot;font-size: 20px;&quot;&gt;Binary Code&amp;nbsp;&lt;/span&gt;" style="strokeWidth=2;html=1;shape=mxgraph.flowchart.document2;whiteSpace=wrap;size=0.25;sketch=1;curveFitting=1;jiggle=2;" vertex="1" parent="1">
          <mxGeometry x="260" y="440" width="160" height="80" as="geometry" />
        </mxCell>
        <mxCell id="-wIudkOCiHozRIKyImha-14" value="" style="edgeStyle=orthogonalEdgeStyle;rounded=0;orthogonalLoop=1;jettySize=auto;html=1;sketch=1;curveFitting=1;jiggle=2;" edge="1" parent="1" source="-wIudkOCiHozRIKyImha-13" target="-wIudkOCiHozRIKyImha-5">
          <mxGeometry relative="1" as="geometry" />
        </mxCell>
        <mxCell id="-wIudkOCiHozRIKyImha-13" value="&lt;font style=&quot;font-size: 19px;&quot;&gt;What we intend it to do, in the form of a series of code&lt;/font&gt;" style="text;html=1;align=center;verticalAlign=middle;whiteSpace=wrap;rounded=0;fillColor=#dae8fc;strokeColor=#6c8ebf;glass=0;sketch=1;curveFitting=1;jiggle=2;" vertex="1" parent="1">
          <mxGeometry x="490" y="90" width="200" height="120" as="geometry" />
        </mxCell>
        <mxCell id="-wIudkOCiHozRIKyImha-16" value="" style="edgeStyle=orthogonalEdgeStyle;rounded=0;orthogonalLoop=1;jettySize=auto;html=1;sketch=1;curveFitting=1;jiggle=2;" edge="1" parent="1" source="-wIudkOCiHozRIKyImha-15" target="-wIudkOCiHozRIKyImha-6">
          <mxGeometry relative="1" as="geometry" />
        </mxCell>
        <mxCell id="-wIudkOCiHozRIKyImha-15" value="&lt;font style=&quot;font-size: 19px;&quot;&gt;A grey box&lt;/font&gt;" style="text;html=1;align=center;verticalAlign=middle;whiteSpace=wrap;rounded=0;fillColor=#dae8fc;strokeColor=#6c8ebf;glass=0;sketch=1;curveFitting=1;jiggle=2;" vertex="1" parent="1">
          <mxGeometry x="490" y="255" width="200" height="120" as="geometry" />
        </mxCell>
        <mxCell id="-wIudkOCiHozRIKyImha-18" value="" style="edgeStyle=orthogonalEdgeStyle;rounded=0;orthogonalLoop=1;jettySize=auto;html=1;sketch=1;curveFitting=1;jiggle=2;" edge="1" parent="1" source="-wIudkOCiHozRIKyImha-17" target="-wIudkOCiHozRIKyImha-7">
          <mxGeometry relative="1" as="geometry" />
        </mxCell>
        <mxCell id="-wIudkOCiHozRIKyImha-17" value="&lt;font style=&quot;font-size: 19px;&quot;&gt;Executable that should do what we intend it to do&lt;/font&gt;" style="text;html=1;align=center;verticalAlign=middle;whiteSpace=wrap;rounded=0;fillColor=#dae8fc;strokeColor=#6c8ebf;glass=0;sketch=1;curveFitting=1;jiggle=2;" vertex="1" parent="1">
          <mxGeometry x="490" y="420" width="200" height="120" as="geometry" />
        </mxCell>
      </root>
    </mxGraphModel>
  </diagram>
</mxfile>
